<svg width="36" height="36" viewBox="0 0 36 36" fill="none" xmlns="http://www.w3.org/2000/svg">
<path d="M13.488 5.98201C13.0318 5.72143 12.5152 5.58522 11.9899 5.58699C11.4645 5.58877 10.9488 5.72847 10.4944 5.99212C10.04 6.25578 9.66282 6.63413 9.40056 7.08934C9.13829 7.54455 9.00017 8.06065 9 8.58601V27.417C9.00017 27.9424 9.13829 28.4585 9.40056 28.9137C9.66282 29.3689 10.04 29.7472 10.4944 30.0109C10.9488 30.2745 11.4645 30.4142 11.9899 30.416C12.5152 30.4178 13.0318 30.2816 13.488 30.021L29.964 20.604C30.4228 20.3415 30.8042 19.9624 31.0694 19.5052C31.3346 19.0479 31.4743 18.5286 31.4743 18C31.4743 17.4714 31.3346 16.9521 31.0694 16.4949C30.8042 16.0376 30.4228 15.6585 29.964 15.396L13.488 5.98201Z" fill="white"/>
</svg>
