<svg width="544" height="152" viewBox="0 0 544 152" fill="none" xmlns="http://www.w3.org/2000/svg">
<g clip-path="url(#clip0_89_44)">
<path d="M468 152C509.974 152 544 117.974 544 76.0001C544 34.0264 509.974 5.00342e-05 468 5.52865e-05L-44 0.000119354C-85.9737 0.000124607 -120 34.0265 -120 76.0002C-120 117.974 -85.9736 152 -44 152L468 152Z" fill="#00B78A"/>
<path d="M653.298 428.827C692.758 458.852 749.087 451.204 779.113 411.744C809.138 372.284 801.49 315.954 762.03 285.929L58.1808 -249.634C18.7207 -279.66 -37.6085 -272.011 -67.6339 -232.551C-97.6593 -193.091 -90.011 -136.762 -50.5509 -106.736L653.298 428.827Z" fill="white"/>
</g>
<defs>
<clipPath id="clip0_89_44">
<path d="M468 152C509.974 152 544 117.974 544 76.0001C544 34.0264 509.974 5.00342e-05 468 5.52865e-05L-44 0.000119354C-85.9737 0.000124607 -120 34.0265 -120 76.0002C-120 117.974 -85.9736 152 -44 152L468 152Z" fill="white"/>
</clipPath>
</defs>
</svg>
