<svg width="551" height="152" viewBox="0 0 551 152" fill="none" xmlns="http://www.w3.org/2000/svg">
<g clip-path="url(#clip0_89_46)">
<path d="M76 152C34.0264 152 4.25782e-06 117.974 9.5101e-06 76.0001C1.47624e-05 34.0264 34.0264 5.00342e-05 76 5.52865e-05L588 0.000119354C629.974 0.000124607 664 34.0265 664 76.0002C664 117.974 629.974 152 588 152L76 152Z" fill="#00B78A"/>
<path d="M-104.298 428.827C-143.758 458.852 -200.087 451.204 -230.113 411.744C-260.138 372.284 -252.49 315.954 -213.03 285.929L490.819 -249.634C530.279 -279.66 586.608 -272.011 616.634 -232.551C646.659 -193.091 639.011 -136.762 599.551 -106.736L-104.298 428.827Z" fill="white"/>
</g>
<defs>
<clipPath id="clip0_89_46">
<path d="M76 152C34.0264 152 4.25782e-06 117.974 9.5101e-06 76.0001C1.47624e-05 34.0264 34.0264 5.00342e-05 76 5.52865e-05L588 0.000119354C629.974 0.000124607 664 34.0265 664 76.0002C664 117.974 629.974 152 588 152L76 152Z" fill="white"/>
</clipPath>
</defs>
</svg>
