<svg width="665" height="799" viewBox="0 0 665 799" fill="none" xmlns="http://www.w3.org/2000/svg">
<g clip-path="url(#clip0_89_40)">
<path d="M800 799C1271.65 799 1654 416.651 1654 -55.0001L-3.73295e-05 -55L-1.66843e-05 417.308C-7.46982e-06 628.111 170.889 799 381.692 799L800 799Z" fill="#00B78A"/>
<path d="M269 -55L269 265C269 483.705 446.295 661 665 661L703 661C900.718 661 1061 500.718 1061 303C1061 105.282 900.718 -55.0001 703 -55.0001L269 -55Z" fill="#161311"/>
<path d="M479 154L479 471.5C479 570.083 399.083 650 300.5 650C201.917 650 122 570.083 122 471.5L122 402C122 265.033 233.033 154 370 154L479 154Z" fill="white"/>
</g>
<defs>
<clipPath id="clip0_89_40">
<path d="M800 799C1271.65 799 1654 416.651 1654 -55.0001L-3.73295e-05 -55L-1.66843e-05 417.308C-7.46982e-06 628.111 170.889 799 381.692 799L800 799Z" fill="white"/>
</clipPath>
</defs>
</svg>
