<svg width="30" height="30" viewBox="0 0 30 30" fill="none" xmlns="http://www.w3.org/2000/svg">
<g clip-path="url(#clip0_90_1818)">
<path d="M18.8711 15.9678C17.537 15.9678 16.4517 14.8824 16.4517 13.5484C16.4517 12.2143 17.537 11.129 18.8711 11.129C20.2051 11.129 21.2905 12.2143 21.2905 13.5484C21.2905 14.8824 20.2051 15.9678 18.8711 15.9678Z" fill="white"/>
<path d="M15 0C6.72922 0 0 6.72871 0 15C0 23.2713 6.72922 30 15 30C23.2708 30 30 23.2713 30 15C30 6.72871 23.2708 0 15 0ZM15 29.0322C7.26238 29.0322 0.967762 22.7371 0.967762 15C0.967762 7.26289 7.26238 0.967762 15 0.967762C22.7376 0.967762 29.0322 7.26289 29.0322 15C29.0322 22.7371 22.7376 29.0322 15 29.0322Z" fill="white"/>
<path d="M14.9999 3.38707C8.59686 3.38707 3.38696 8.59687 3.38696 15C3.38696 21.4031 8.59676 26.6129 14.9999 26.6129C21.403 26.6129 26.6128 21.4031 26.6128 15C26.6128 8.59687 21.4029 3.38707 14.9999 3.38707ZM14.9999 25.6452C9.13003 25.6452 4.35472 20.8699 4.35472 15C4.35472 9.13013 9.13003 4.35483 14.9999 4.35483C20.8698 4.35483 25.6451 9.13013 25.6451 15C25.6451 20.8699 20.8698 25.6452 14.9999 25.6452Z" fill="white"/>
<path d="M10.1614 6.29034C9.09391 6.29034 8.22583 7.15842 8.22583 8.22587V21.7742C8.22583 22.8417 9.09391 23.7097 10.1614 23.7097C11.2288 23.7097 12.0969 22.8417 12.0969 21.7742V8.22577C12.0969 7.15842 11.2288 6.29034 10.1614 6.29034ZM9.19359 16.6389L11.1291 17.2839V19.1677L9.19359 18.5226V16.6389ZM9.19359 15.6193V13.7356L11.1291 14.3807V16.2644L9.19359 15.6193ZM9.19359 12.7161V10.8324L11.1291 11.4775V13.3612L9.19359 12.7161ZM10.1614 7.25811C10.695 7.25811 11.1291 7.6921 11.1291 8.22587V10.458L9.19359 9.81296V8.22577C9.19359 7.6921 9.62768 7.25811 10.1614 7.25811ZM10.1614 22.742C9.62768 22.742 9.19359 22.308 9.19359 21.7742V19.5421L11.1291 20.1871V21.7742C11.1291 22.3079 10.695 22.742 10.1614 22.742Z" fill="white"/>
<path d="M22.5101 9.66441C21.4253 8.64777 20.0032 8.14123 18.5172 8.23746C15.7311 8.41792 13.5483 10.8237 13.5483 13.7144V19.2127C13.5483 21.362 15.2318 23.1621 17.3003 23.2245C17.3409 23.2255 17.3806 23.2259 17.4208 23.2259C18.4331 23.2259 19.3858 22.8408 20.1146 22.1333C20.8728 21.3979 21.2903 20.4112 21.2903 19.3549C21.2903 19.2258 21.284 19.099 21.2714 18.9722C21.2327 18.588 21.3914 18.2449 21.6953 18.0547C23.2596 17.0734 24.1935 15.3895 24.1935 13.5484C24.1934 12.0828 23.5799 10.6669 22.5101 9.66441ZM21.1813 17.2341C20.5683 17.6188 20.2339 18.3213 20.3084 19.068C20.3176 19.1624 20.3225 19.2581 20.3225 19.3549C20.3225 20.147 20.0094 20.8869 19.4409 21.439C18.8729 21.9907 18.1185 22.2819 17.3298 22.2568C15.778 22.2104 14.5161 20.8449 14.5161 19.2128V13.7145C14.5161 11.3324 16.3011 9.35093 18.5801 9.20339C18.6784 9.19658 18.7761 9.19374 18.8734 9.19374C19.9853 9.19374 21.0324 9.60598 21.8482 10.371C22.7366 11.2032 23.2258 12.3316 23.2258 13.5486C23.2257 15.0538 22.4612 16.4318 21.1813 17.2341Z" fill="white"/>
</g>
<defs>
<clipPath id="clip0_90_1818">
<rect width="30" height="30" fill="white"/>
</clipPath>
</defs>
</svg>
