<svg width="30" height="30" viewBox="0 0 30 30" fill="none" xmlns="http://www.w3.org/2000/svg">
<g clip-path="url(#clip0_90_1880)">
<path fill-rule="evenodd" clip-rule="evenodd" d="M9.69676 26.2316C8.96453 26.9638 7.77735 26.9638 7.04511 26.2316C6.46807 25.6546 6.34577 24.795 6.67821 24.0982L6.52689 23.9469C5.83008 24.2793 4.9705 24.157 4.39346 23.58C3.66123 22.8477 3.66123 21.6605 4.39346 20.9283C5.12569 20.1961 6.31288 20.1961 7.04511 20.9283C7.2003 21.0835 7.32261 21.2591 7.41201 21.4465L10.1387 18.7186L11.9065 20.4864L9.17973 23.2136C9.36669 23.303 9.5419 23.4251 9.69676 23.58C10.429 24.3122 10.429 25.4994 9.69676 26.2316ZM24.2808 6.34422C27.2098 9.27316 27.2098 14.0219 24.2808 16.9508C23.1785 18.0532 21.0817 18.8956 17.9904 19.4779C16.7555 19.7106 15.6195 20.31 14.7304 21.1981L14.5581 21.3702C14.07 21.8584 13.2785 21.8584 12.7904 21.3702L9.25482 17.8347C8.76667 17.3466 8.76667 16.5551 9.25482 16.0669L9.4249 15.8969C10.3144 15.0074 10.9148 13.8702 11.1476 12.634C11.7297 9.54318 12.5719 7.44659 13.6742 6.34422C16.6032 3.41529 21.3519 3.41529 24.2808 6.34422Z" stroke="white" stroke-width="1.25" stroke-linecap="round"/>
</g>
<defs>
<clipPath id="clip0_90_1880">
<rect width="30" height="30" fill="white"/>
</clipPath>
</defs>
</svg>
