<svg width="30" height="30" viewBox="0 0 30 30" fill="none" xmlns="http://www.w3.org/2000/svg">
<path d="M3.75 12.1875V10.7813C3.74995 10.1661 3.88443 9.55839 4.14401 9.00069C4.40359 8.443 4.78199 7.94881 5.2527 7.55277C5.72341 7.15674 6.27503 6.86843 6.8689 6.70806C7.46278 6.54769 8.08455 6.51913 8.69063 6.62439C9.08511 5.25582 9.91388 4.05262 11.052 3.19625C12.19 2.33988 13.5757 1.87677 15 1.87677C16.4243 1.87677 17.81 2.33988 18.948 3.19625C20.0861 4.05262 20.9149 5.25582 21.3094 6.62439C21.9155 6.51913 22.5372 6.54769 23.1311 6.70806C23.725 6.86843 24.2766 7.15674 24.7473 7.55277C25.218 7.94881 25.5964 8.443 25.856 9.00069C26.1156 9.55839 26.25 10.1661 26.25 10.7813V12.1875C26.2504 15.0092 25.1905 17.728 23.2803 19.8048C21.3702 21.8817 18.7494 23.1649 15.9375 23.4V26.25H14.0625V23.4C11.2506 23.1649 8.62981 21.8817 6.71967 19.8048C4.80954 17.728 3.74959 15.0092 3.75 12.1875ZM12.1613 11.2481H17.8387C17.7554 10.5052 17.8712 9.75344 18.1744 9.07005C18.4775 8.38666 18.9571 7.79624 19.5638 7.35939C19.3209 6.33144 18.7381 5.41559 17.9098 4.76017C17.0815 4.10476 16.0562 3.74817 15 3.74817C13.9438 3.74817 12.9185 4.10476 12.0902 4.76017C11.2619 5.41559 10.6791 6.33144 10.4362 7.35939C11.0432 7.7964 11.523 8.38713 11.8261 9.07088C12.1293 9.75463 12.2449 10.5068 12.1613 11.25V11.2481ZM10.0256 11.2481C10.0952 10.9395 10.0944 10.6191 10.0233 10.3108C9.95224 10.0025 9.81274 9.71416 9.61512 9.46708C9.41751 9.22 9.16684 9.02054 8.88169 8.88347C8.59653 8.74639 8.2842 8.67522 7.96781 8.67522C7.65142 8.67522 7.33909 8.74639 7.05394 8.88347C6.76879 9.02054 6.51812 9.22 6.32051 9.46708C6.12289 9.71416 5.98339 10.0025 5.91233 10.3108C5.84127 10.6191 5.84047 10.9395 5.91 11.2481H10.0256ZM19.9744 11.2481H24.0881C24.1577 10.9395 24.1569 10.6191 24.0858 10.3108C24.0147 10.0025 23.8752 9.71416 23.6776 9.46708C23.48 9.22 23.2293 9.02054 22.9442 8.88347C22.659 8.74639 22.3467 8.67522 22.0303 8.67522C21.7139 8.67522 21.4016 8.74639 21.1164 8.88347C20.8313 9.02054 20.5806 9.22 20.383 9.46708C20.1854 9.71416 20.0459 10.0025 19.9748 10.3108C19.9038 10.6191 19.903 10.9395 19.9725 11.2481H19.9744ZM15 21.5625C17.3244 21.5625 19.5659 20.699 21.2896 19.1395C23.0133 17.5801 24.0961 15.4359 24.3281 13.1231H5.67188C5.90385 15.4359 6.98674 17.5801 8.7104 19.1395C10.4341 20.699 12.6756 21.5625 15 21.5625ZM11.25 26.2519H18.75C18.9986 26.2519 19.2371 26.3507 19.4129 26.5265C19.5887 26.7023 19.6875 26.9407 19.6875 27.1894C19.6875 27.438 19.5887 27.6765 19.4129 27.8523C19.2371 28.0281 18.9986 28.1269 18.75 28.1269H11.25C11.0014 28.1269 10.7629 28.0281 10.5871 27.8523C10.4113 27.6765 10.3125 27.438 10.3125 27.1894C10.3125 26.9407 10.4113 26.7023 10.5871 26.5265C10.7629 26.3507 11.0014 26.2519 11.25 26.2519Z" fill="white"/>
</svg>
