<svg width="30" height="30" viewBox="0 0 30 30" fill="none" xmlns="http://www.w3.org/2000/svg">
<path d="M21.84 24.21H7.98003C6.21003 24.21 4.77003 22.77 4.77003 21V19.2C4.77003 18.96 4.98003 18.75 5.22003 18.75H5.25003C5.43003 18.75 5.61003 18.87 5.67003 19.05C5.79003 19.44 6.63003 19.89 7.77003 19.89C8.76003 19.89 9.45003 19.56 9.75003 19.26C10.02 18.93 10.44 18.75 10.92 18.75H11.79C12.24 18.75 12.66 18.93 12.96 19.26C13.23 19.59 13.95 19.89 14.94 19.89C15.9 19.89 16.62 19.56 16.92 19.26C17.19 18.93 17.61 18.75 18.09 18.75H18.81C19.26 18.75 19.68 18.93 19.98 19.26C20.25 19.59 20.97 19.89 21.96 19.89C23.07 19.89 23.91 19.47 24.03 19.05C24.09 18.87 24.27 18.75 24.45 18.75H24.6C24.84 18.75 25.05 18.96 25.05 19.2V21C25.05 22.77 23.61 24.21 21.84 24.21ZM5.67003 20.28V21C5.67003 22.26 6.69003 23.31 7.98003 23.31H21.84C23.1 23.31 24.15 22.29 24.15 21V20.16C23.61 20.55 22.8 20.76 21.9 20.76C20.79 20.76 19.77 20.4 19.26 19.8C19.17 19.68 18.99 19.62 18.78 19.62H18.06C17.88 19.62 17.7 19.68 17.58 19.8C17.07 20.4 16.05 20.76 14.94 20.76C13.83 20.76 12.81 20.4 12.3 19.8C12.21 19.68 12.03 19.62 11.82 19.62H10.95C10.77 19.62 10.59 19.68 10.47 19.8C9.96003 20.4 8.94003 20.76 7.83003 20.76C6.96003 20.79 6.24003 20.61 5.67003 20.28ZM24.09 17.25H5.97003C4.80003 17.25 3.84003 16.26 3.84003 15.03C3.84003 14.43 4.05003 13.89 4.44003 13.47C4.86003 13.05 5.37003 12.81 5.94003 12.81H18.24C18.39 12.81 18.54 12.9 18.63 13.02L19.26 14.07L20.64 12.9C20.73 12.84 20.82 12.78 20.94 12.78H24.09C25.26 12.78 26.22 13.77 26.22 15C26.22 15.6 26.01 16.14 25.62 16.56C25.2 17.01 24.66 17.25 24.09 17.25ZM5.97003 13.68C5.64003 13.68 5.34003 13.8 5.10003 14.07C4.86003 14.31 4.74003 14.67 4.74003 15.03C4.74003 15.75 5.28003 16.35 5.97003 16.35H24.09C24.42 16.35 24.72 16.23 24.96 15.96C25.2 15.72 25.32 15.36 25.32 15C25.32 14.28 24.78 13.68 24.09 13.68H21.12L19.47 15.09C19.38 15.18 19.23 15.21 19.11 15.18C18.99 15.15 18.87 15.09 18.81 14.97L18 13.68H5.97003ZM19.17 15.21C19.14 15.21 19.11 15.21 19.11 15.21C18.99 15.18 18.87 15.12 18.81 15L18 13.68H6.03003C5.79003 13.68 5.58003 13.47 5.58003 13.23V11.19C5.58003 10.95 5.79003 10.74 6.03003 10.74H23.82C24.06 10.74 24.27 10.95 24.27 11.19V13.23C24.27 13.47 24.06 13.68 23.82 13.68H21.12L19.47 15.09C19.38 15.18 19.29 15.21 19.17 15.21ZM6.48003 12.78H18.24C18.39 12.78 18.54 12.87 18.63 12.99L19.26 14.04L20.64 12.87C20.73 12.81 20.82 12.75 20.94 12.75H23.34V11.61H6.48003V12.78ZM21.9 20.79C20.64 20.79 19.56 20.34 19.11 19.65H17.7C17.25 20.34 16.17 20.79 14.91 20.79C13.65 20.79 12.57 20.34 12.12 19.65H10.56C10.11 20.34 9.03003 20.79 7.77003 20.79C6.45003 20.79 5.34003 20.31 4.95003 19.59C4.26003 19.38 3.78003 18.75 3.78003 18.03C3.78003 17.28 4.32003 16.62 5.04003 16.44C5.10003 16.41 5.16003 16.41 5.22003 16.41H24.6C25.5 16.41 26.22 17.13 26.22 18.03C26.22 18.9 25.53 19.62 24.69 19.65C24.24 20.34 23.16 20.79 21.9 20.79ZM17.43 18.75H19.38C19.56 18.75 19.74 18.87 19.8 19.05C19.92 19.44 20.76 19.89 21.9 19.89C23.01 19.89 23.85 19.47 23.97 19.05C24.03 18.87 24.21 18.75 24.39 18.75H24.6C24.99 18.75 25.32 18.42 25.32 18.03C25.32 17.64 24.99 17.31 24.6 17.31H5.34003C5.31003 17.31 5.31003 17.31 5.28003 17.31C4.92003 17.37 4.65003 17.67 4.65003 18.03C4.65003 18.39 4.92003 18.69 5.28003 18.75C5.34003 18.75 5.37003 18.78 5.40003 18.78C5.52003 18.84 5.64003 18.93 5.67003 19.05C5.79003 19.44 6.63003 19.89 7.77003 19.89C8.88003 19.89 9.72003 19.47 9.84003 19.05C9.90003 18.87 10.08 18.75 10.26 18.75H12.36C12.54 18.75 12.72 18.87 12.78 19.05C12.9 19.44 13.74 19.89 14.85 19.89C15.96 19.89 16.8 19.47 16.92 19.05C17.07 18.87 17.22 18.75 17.43 18.75ZM24.6 11.67H5.22003C4.98003 11.67 4.77003 11.46 4.77003 11.22V10.68C4.77003 7.98 6.96003 5.79 9.66003 5.79H20.13C22.83 5.79 25.02 7.98 25.02 10.68V11.22C25.05 11.46 24.84 11.67 24.6 11.67ZM5.67003 10.77H24.15V10.68C24.15 8.49 22.35 6.69 20.16 6.69H9.69003C7.50003 6.69 5.70003 8.49 5.70003 10.68V10.77H5.67003ZM9.48003 9.42L10.62 8.28C10.8 8.1 10.8 7.83 10.62 7.65C10.44 7.47 10.17 7.47 9.99003 7.65L8.85003 8.79C8.67003 8.97 8.67003 9.24 8.85003 9.42C8.94003 9.51 9.06003 9.54 9.18003 9.54C9.27003 9.54 9.39003 9.48 9.48003 9.42ZM14.67 9.42L15.81 8.28C15.99 8.1 15.99 7.83 15.81 7.65C15.63 7.47 15.36 7.47 15.18 7.65L14.04 8.79C13.86 8.97 13.86 9.24 14.04 9.42C14.13 9.51 14.25 9.54 14.37 9.54C14.46 9.54 14.58 9.48 14.67 9.42ZM19.68 9.42L20.82 8.28C21 8.1 21 7.83 20.82 7.65C20.64 7.47 20.37 7.47 20.19 7.65L19.05 8.79C18.87 8.97 18.87 9.24 19.05 9.42C19.14 9.51 19.26 9.54 19.38 9.54C19.47 9.54 19.59 9.48 19.68 9.42Z" fill="white"/>
</svg>
