<svg width="30" height="30" viewBox="0 0 30 30" fill="none" xmlns="http://www.w3.org/2000/svg">
<g clip-path="url(#clip0_90_1832)">
<path d="M29.987 15.8084C29.9591 15.6246 29.8398 15.197 29.3323 15.197H28.1998C27.9437 15.197 27.7359 15.4893 27.7359 15.85C27.7359 16.2104 27.9437 16.503 28.1998 16.503H28.2148C27.1893 17.2964 25.4891 18.4517 23.9373 19.4303H22.0035C21.7474 19.4303 21.5396 19.7226 21.5396 20.0833C21.5396 20.4439 21.7474 20.7363 22.0035 20.7363H23.0643L22.5453 21.6938H7.38274L6.91054 20.7363H19.1373C19.3936 20.7363 19.6013 20.4439 19.6013 20.0833C19.6013 19.7226 19.3936 19.4303 19.1373 19.4303H6.02719C4.48399 18.4517 2.79315 17.296 1.77536 16.503H25.8957C26.101 16.503 26.2747 16.3151 26.3359 16.0552C26.3711 15.9542 26.3887 15.8389 26.3819 15.7184C26.3741 15.5758 26.1707 12.2025 24.5531 10.6105C24.0375 10.1032 23.4443 9.83796 22.7809 9.81242C22.6591 9.32195 22.3224 8.18816 21.6094 7.14279C20.7557 5.89156 19.1866 4.53159 16.5589 5.1573C15.2836 5.46107 14.3748 6.34914 13.7272 7.49144C13.4805 7.2018 13.0087 6.73552 12.3259 6.43968C11.4039 6.04015 9.89507 5.87608 7.94209 7.36394C3.92217 10.4256 3.38701 14.9002 3.36625 15.089C3.36213 15.1254 3.36103 15.1616 3.3613 15.1974H0.668752C0.161089 15.1974 0.0412185 15.6251 0.0131754 15.8089C-0.0745281 16.3853 0.276286 16.7879 1.04582 17.4206C1.50413 17.7973 2.14693 18.2735 2.95633 18.8354C4.32508 19.7857 5.7238 20.6703 5.73768 20.6792C5.74455 20.6833 5.75157 20.6868 5.75858 20.6906L6.75906 22.7193C6.8458 22.8951 6.98807 23 7.14011 23H22.775C22.9197 23 23.0561 22.905 23.1439 22.7431L24.2813 20.6442C24.5549 20.471 25.801 19.6791 27.0245 18.8348C27.839 18.2727 28.4857 17.7968 28.9471 17.4199C29.7213 16.7872 30.0743 16.3849 29.987 15.8084ZM7.08788 12.8394C7.39676 13.0859 7.81823 13.4636 8.05784 13.8269C8.163 13.9862 8.23998 14.2 8.28686 14.4623C8.33978 14.7583 8.5288 14.9561 8.73637 14.9561C8.7739 14.9561 8.81198 14.9497 8.84992 14.936C9.09846 14.8479 9.24912 14.4931 9.18671 14.1433C9.10134 13.6654 8.95013 13.2597 8.73788 12.9381C8.46955 12.5308 8.08134 12.1547 7.76118 11.8811C7.93687 11.6689 8.12643 11.4653 8.32713 11.2693C8.71328 11.5516 9.34796 12.0835 9.64021 12.6123C9.76173 12.8324 9.92325 13.2894 10.0028 14.2162C10.0313 14.5476 10.2315 14.791 10.4629 14.791C10.4815 14.791 10.5002 14.7895 10.5192 14.7864C10.7736 14.7431 10.9549 14.4178 10.9241 14.0599C10.8399 13.0774 10.6544 12.3207 10.3728 11.8107C10.086 11.292 9.63705 10.8352 9.24926 10.5012C9.48941 10.3381 9.71747 10.2131 9.93274 10.1201C10.7871 12.0009 11.7363 12.4027 12.3062 12.449C12.1722 13.5851 12.1432 14.5827 12.1413 15.1966H6.17015C6.3571 14.3412 6.66379 13.5537 7.08788 12.8394ZM12.5014 11.1486C12.2962 11.1736 11.6446 11.1354 10.9507 9.88749C11.9315 9.87608 12.4735 10.5316 12.5128 10.5811C12.5391 10.615 12.5674 10.6432 12.5971 10.667C12.5627 10.828 12.531 10.9888 12.5014 11.1486ZM19.6116 11.4146C19.2519 10.9391 18.4739 10.0285 17.5499 9.65706C17.0125 9.44094 16.3142 9.50479 15.7176 9.69634C15.9241 9.42856 16.1699 9.20606 16.4643 9.04915C18.5532 7.93528 19.7466 9.9703 20.158 10.8684C19.9733 11.0339 19.7907 11.2175 19.6116 11.4146ZM14.9692 11.4127C14.9867 11.3951 15.0037 11.3763 15.0197 11.3548C15.2682 11.1198 16.5935 10.6306 17.295 10.9127C17.9781 11.1873 18.5901 11.8732 18.9089 12.2799C18.7704 12.4687 18.6359 12.6635 18.5054 12.8626C18.2595 12.5904 17.8225 12.2269 17.0829 11.9295C16.2646 11.6004 15.3789 11.9579 14.8098 12.2892C14.8492 11.9931 14.9015 11.6985 14.9692 11.4127ZM14.716 15.0021C14.7025 14.6577 14.6936 14.2497 14.7019 13.8113C15.0463 13.5232 16.0624 12.8773 16.8282 13.1852C17.4229 13.4243 17.7484 13.6971 17.9056 13.8621C17.659 14.3108 17.4391 14.7626 17.2535 15.197H14.7236C14.7211 15.1343 14.7186 15.0702 14.716 15.0021ZM25.3901 15.197H24.5465C24.4394 14.0042 23.9361 12.1953 22.5876 12.1953C21.8216 12.1953 20.9911 12.7421 20.1186 13.8202C19.9263 14.0579 19.9073 14.4706 20.0761 14.7415C20.2452 15.0124 20.5384 15.0393 20.7309 14.8015C21.4189 13.951 22.0611 13.5015 22.5875 13.5015C23.3002 13.5015 23.5324 14.5929 23.6065 15.1972H18.3589C19.1962 13.505 20.4701 11.7894 21.6098 11.3401C22.5866 10.9551 23.3973 11.0687 24.0182 11.6778C24.9152 12.5575 25.2634 14.2735 25.3901 15.197ZM16.7135 6.44472C20.1872 5.61701 21.4602 8.70881 21.8214 9.92851C21.6703 9.96933 21.5165 10.0206 21.3598 10.0825C21.2308 10.1334 21.1013 10.1974 20.9721 10.2708C20.7744 9.86776 20.3938 9.18981 19.8337 8.60608C19.0363 7.77528 18.0038 6.70727 16.2852 7.74432C13.843 9.21805 13.9682 13.2279 13.8656 15.197H13.0694C13.0738 13.2829 13.3589 7.2434 16.7135 6.44472ZM8.38363 8.51205C11.2916 6.2967 12.9402 8.22686 13.2094 8.58634C13.1063 8.84793 13.0129 9.11609 12.9284 9.38812C12.3662 8.84619 10.734 7.7122 8.32246 9.72052L8.32218 9.72071C8.29758 9.74122 8.27283 9.76193 8.24726 9.78379C6.62393 11.171 5.60118 12.9911 5.20459 15.1968H4.2958C4.39038 14.585 5.06973 11.036 8.38363 8.51205Z" fill="white"/>
</g>
<defs>
<clipPath id="clip0_90_1832">
<rect width="30" height="30" fill="white"/>
</clipPath>
</defs>
</svg>
