<svg width="30" height="30" viewBox="0 0 30 30" fill="none" xmlns="http://www.w3.org/2000/svg">
<path d="M28.1728 14.6105C27.9659 13.5093 27.4293 12.4977 26.6133 11.6991C25.578 10.6858 24.2099 10.1278 22.761 10.1278C22.4378 10.1278 22.1191 10.1571 21.8068 10.2114C21.9326 8.15766 20.4181 6.26256 20.2376 6.04477L19.8128 5.5323L19.1936 5.77646C17.4041 6.48217 16.2538 7.48857 15.7748 8.76768C15.7566 8.81625 15.7396 8.86453 15.7239 8.91258C14.2158 7.7165 12.361 7.06646 10.4095 7.06646C8.14137 7.06646 6.00328 7.94385 4.38914 9.53713C2.99379 10.9144 2.12836 12.6901 1.90002 14.6104H0V15.5288C0 19.0736 2.88387 21.9574 6.42855 21.9574H23.5714C27.1161 21.9574 30 19.0736 30 15.5289V14.6105L28.1728 14.6105ZM20.2995 12.9238C20.3995 12.8485 20.4947 12.77 20.5853 12.689C21.1971 12.2347 21.951 11.9646 22.7609 11.9646C24.4136 11.9645 25.8352 13.0877 26.2849 14.6105H24.7536C24.3813 13.8826 23.6227 13.386 22.7609 13.386C21.8991 13.386 21.1406 13.8826 20.7683 14.6105H19.2369C19.4306 13.9549 19.8047 13.3736 20.2995 12.9238ZM17.5038 9.38854C17.7418 8.7774 18.3278 8.22762 19.2142 7.77744C19.5881 8.37592 20.0793 9.35754 19.961 10.2404C19.9109 10.614 19.7474 10.9383 19.4649 11.2234C19.2709 11.3689 19.0846 11.5269 18.9086 11.6991C18.6974 11.9058 18.506 12.1274 18.3329 12.3604C18.1142 11.8313 17.8421 11.3245 17.5191 10.847C17.4486 10.6762 17.2392 10.068 17.5038 9.38854ZM10.4095 8.90326C13.7551 8.90326 16.5655 11.3892 17.0648 14.6105H15.6486C15.4443 13.5541 14.9265 12.5841 14.1428 11.8169C13.1395 10.8349 11.8137 10.2941 10.4096 10.2941C9.00545 10.2941 7.67965 10.8349 6.67635 11.8169C5.89254 12.5841 5.37486 13.5541 5.17055 14.6105H3.75428C4.25355 11.3892 7.06395 8.90326 10.4095 8.90326ZM13.7568 14.6105H12.4022C12.0299 13.8826 11.2713 13.386 10.4095 13.386C9.54773 13.386 8.78918 13.8826 8.41687 14.6105H7.0623C7.50521 13.1804 8.8493 12.1309 10.4096 12.1309C11.9699 12.1309 13.3138 13.1805 13.7568 14.6105ZM23.5714 20.1207H6.42855C4.21107 20.1207 2.35564 18.5405 1.92896 16.4472H5.05066H8.10938H12.7098H15.7685H17.2318H18.9926H20.4609H25.0613H28.0712C27.6444 18.5405 25.7889 20.1207 23.5714 20.1207Z" fill="white"/>
<path d="M5.81641 24.4064H24.1531V24.4676H24.2144V24.4064H24.796V22.5697H5.81641V24.4064Z" fill="white"/>
</svg>
