<svg width="30" height="30" viewBox="0 0 30 30" fill="none" xmlns="http://www.w3.org/2000/svg">
<path d="M23.4868 6.5096C18.8078 1.83013 11.1942 1.83013 6.51519 6.5096C3.42292 9.60187 2.25749 14.1353 3.47361 18.3401C3.50644 18.4539 3.58497 18.549 3.69041 18.6029C3.79585 18.6565 3.91893 18.6653 4.03052 18.6243L15.5016 14.4948L11.3719 25.9658C11.3316 26.0771 11.3397 26.2002 11.3935 26.3057C11.4473 26.4111 11.5423 26.4899 11.6561 26.5229C12.7577 26.8414 13.8812 26.9968 14.996 26.9968C18.1369 26.9968 21.2047 25.7637 23.4868 23.4813C25.7535 21.2149 27.0019 18.2012 27.0019 14.9955C27.0019 11.7898 25.7535 8.77608 23.4868 6.5096ZM16.6167 13.9285C16.673 13.7724 16.6339 13.5975 16.5164 13.4803C16.3988 13.3631 16.2244 13.3238 16.0681 13.3803L6.61935 16.7814C6.02104 13.9567 6.88731 10.9866 8.93977 8.93384C12.2818 5.59206 17.7202 5.59159 21.0627 8.93384C24.4049 12.2761 24.4049 17.7147 21.0627 21.0569C18.9874 23.1322 16.0735 23.985 13.2156 23.376L16.6167 13.9285ZM22.8808 22.8753C20.1171 25.6386 16.1142 26.7448 12.3365 25.8177L12.9226 24.19C13.625 24.3487 14.3308 24.4302 15.0298 24.4302C17.4943 24.4302 19.8685 23.4634 21.6687 21.6631C25.345 17.9865 25.345 12.0044 21.6687 8.32786C17.9921 4.65131 12.0102 4.65131 8.33368 8.32786C6.0483 10.6133 5.10152 13.933 5.80783 17.0736L4.17888 17.66C3.25171 13.8821 4.35798 9.87945 7.12128 7.11569C11.4668 2.77111 18.5362 2.77146 22.8807 7.11569C24.9854 9.22058 26.1447 12.0187 26.1447 14.9954C26.1447 17.9721 24.9855 20.7702 22.8808 22.8753Z" fill="white"/>
<path d="M13.708 16.2888C13.5909 16.1716 13.4165 16.131 13.2607 16.1883L3.36046 19.7238C3.14006 19.8025 3.02371 20.0432 3.09865 20.2651C3.12649 20.3471 3.80322 22.3005 5.74954 24.2472C7.69599 26.1935 9.64927 26.8699 9.73151 26.8979C9.7771 26.9134 9.82338 26.9206 9.86897 26.9206C10.0452 26.9206 10.2101 26.8113 10.2726 26.6359L13.8086 16.7358C13.8643 16.5801 13.8252 16.4059 13.708 16.2888ZM9.61633 25.9252C8.97904 25.6381 7.65701 24.9424 6.35552 23.6411C5.05402 22.3393 4.35838 21.0171 4.07129 20.3801L5.2569 19.9566C5.66417 21.0537 6.28418 22.038 7.12133 22.8751C7.95861 23.7121 8.94273 24.3326 10.0396 24.7399L9.61633 25.9252ZM10.3276 23.9335C9.35104 23.5689 8.47398 23.0154 7.72742 22.2692C6.98098 21.5227 6.42778 20.6459 6.06332 19.6688L12.6969 17.2997L10.3276 23.9335Z" fill="white"/>
<path d="M11.9706 7.72178C11.1351 8.55719 11.1351 9.91715 11.9706 10.7526C12.3883 11.1703 12.937 11.3792 13.4857 11.3792C14.0346 11.3792 14.5834 11.1703 15.0011 10.7526C15.8365 9.91715 15.8365 8.55719 15.0011 7.72178C14.1657 6.88636 12.8061 6.88683 11.9706 7.72178ZM14.395 10.1465C13.8936 10.6475 13.078 10.6479 12.5766 10.1465C12.0754 9.64502 12.0754 8.82932 12.5766 8.32787C13.0776 7.82641 13.8932 7.82606 14.395 8.32787C14.8964 8.82932 14.8964 9.64502 14.395 10.1465Z" fill="white"/>
<path d="M17.7288 21.6843C18.3011 21.6843 18.8392 21.4612 19.2439 21.0565C19.6486 20.6518 19.8716 20.1139 19.8716 19.5414C19.8716 18.9688 19.6487 18.4309 19.2439 18.0262C18.8392 17.6215 18.3011 17.3984 17.7288 17.3984C17.1562 17.3984 16.6181 17.6215 16.2134 18.0262C15.8086 18.4309 15.5857 18.9688 15.5857 19.5414C15.5857 20.1139 15.8085 20.6518 16.2134 21.0565C16.6181 21.4612 17.1562 21.6843 17.7288 21.6843ZM16.8194 18.6323C17.0625 18.3895 17.3852 18.2556 17.7288 18.2556C18.0722 18.2556 18.3949 18.3896 18.6378 18.6323C18.8806 18.8751 19.0144 19.1978 19.0144 19.5414C19.0144 19.8851 18.8806 20.2077 18.6378 20.4504C18.1517 20.936 17.3051 20.936 16.8194 20.4504C16.5767 20.2077 16.4429 19.8849 16.4429 19.5414C16.4429 19.1978 16.5767 18.8751 16.8194 18.6323Z" fill="white"/>
<path d="M18.6378 14.9954C19.0557 15.4131 19.6043 15.622 20.1532 15.622C20.702 15.622 21.2509 15.4131 21.6686 14.9954C22.504 14.16 22.504 12.8 21.6686 11.9646C20.8329 11.1292 19.4734 11.1292 18.6378 11.9646C17.8024 12.8002 17.8024 14.16 18.6378 14.9954ZM19.2439 12.5707C19.7453 12.0697 20.561 12.0701 21.0625 12.5707C21.5637 13.0722 21.5637 13.8879 21.0625 14.3893C20.561 14.8895 19.7453 14.89 19.2439 14.3893C18.7427 13.888 18.7427 13.0722 19.2439 12.5707Z" fill="white"/>
<path d="M10.0584 10.8505C9.60592 10.8957 8.73942 11.2866 8.69731 12.4406C8.68873 12.6771 8.87351 12.8759 9.11003 12.8843C9.11548 12.8847 9.1207 12.8847 9.12592 12.8847C9.35548 12.8847 9.54548 12.7031 9.55407 12.4715C9.5775 11.8287 10.014 11.7207 10.1488 11.703C10.3817 11.6767 10.5511 11.4683 10.5276 11.2343C10.504 10.9986 10.2934 10.8299 10.0584 10.8505Z" fill="white"/>
<path d="M17.8612 11.4699C17.9582 11.4699 18.0558 11.4372 18.136 11.3699C18.3176 11.2179 18.3417 10.948 18.1898 10.7664C17.7771 10.2733 18.029 9.90114 18.1175 9.79744C18.2732 9.62252 18.2594 9.35421 18.0855 9.19599C17.9108 9.03615 17.6391 9.04949 17.4801 9.22441C17.1741 9.56057 16.7912 10.4307 17.5322 11.3164C17.6169 11.4176 17.7387 11.4699 17.8612 11.4699Z" fill="white"/>
<path d="M21.4513 17.3737C21.6069 17.1983 21.5931 16.93 21.4192 16.7718C21.2445 16.6132 20.9731 16.6261 20.8138 16.8007C20.5078 17.1372 20.1249 18.0074 20.8659 18.8931C20.9507 18.9943 21.0725 19.0466 21.1949 19.0466C21.292 19.0466 21.3895 19.0139 21.4697 18.9466C21.6513 18.7947 21.6755 18.5248 21.5235 18.3431C21.1106 17.8495 21.363 17.4771 21.4513 17.3737Z" fill="white"/>
<path d="M8.3265 21.026C8.48912 21.1135 8.7398 21.1918 9.02608 21.1918C9.44506 21.1918 9.94002 21.0235 10.3442 20.469C10.4836 20.2777 10.4415 20.0099 10.2502 19.8701C10.0585 19.7311 9.79108 19.7734 9.65142 19.9643C9.27223 20.4842 8.85011 20.3297 8.72831 20.269C8.52068 20.1589 8.26351 20.2385 8.15238 20.4457C8.04021 20.6539 8.11805 20.9138 8.3265 21.026Z" fill="white"/>
</svg>
