<svg width="30" height="30" viewBox="0 0 30 30" fill="none" xmlns="http://www.w3.org/2000/svg">
<g clip-path="url(#clip0_90_1837)">
<path d="M29.6732 14.3677C29.4467 14.1255 29.1275 13.9867 28.7972 13.9867H28.6989C29.1442 13.2201 29.3864 12.3496 29.3864 11.4533C29.3864 9.43219 28.1775 7.61273 26.3423 6.81321C26.2993 4.05692 24.0466 1.82655 21.2802 1.82655C18.5143 1.82655 16.2621 4.0554 16.2175 6.81067C16.1142 6.78635 16.0078 6.77217 15.8993 6.77217C15.4489 6.77217 15.0248 6.99206 14.7659 7.35991L14.6398 7.53927C14.5359 7.6862 14.3408 7.7394 14.1777 7.6634L13.9791 7.57119C13.5702 7.38068 13.0934 7.40297 12.7028 7.62793C12.3121 7.8529 12.0552 8.2557 12.0147 8.7041L11.9949 8.92248C11.9878 9.00051 11.9534 9.10944 11.9083 9.22598C11.7923 9.17075 11.7092 9.05725 11.697 8.92197L11.6773 8.70461C11.6388 8.27901 11.4113 7.92636 11.0855 7.70292L12.68 5.44013C12.9905 4.99882 13.1111 4.46124 13.0179 3.92721C12.9252 3.39216 12.6313 2.92653 12.1905 2.61594C11.2765 1.97247 10.0098 2.19135 9.36633 3.10539L6.4479 7.24742C6.35062 7.38575 6.27868 7.53572 6.21939 7.68975C6.17227 7.69178 6.12211 7.68722 6.07043 7.6634L5.87182 7.57119C5.46293 7.38169 4.98514 7.40348 4.59551 7.62844C4.20538 7.8534 3.94849 8.2557 3.90796 8.7041L3.8882 8.92248C3.87199 9.10235 3.72961 9.24472 3.54974 9.26094L3.33188 9.2807C2.88347 9.32123 2.48067 9.57862 2.25571 9.96825C2.03024 10.3589 2.00896 10.8357 2.19845 11.2456L2.29016 11.4432C2.36616 11.6073 2.31397 11.8019 2.16603 11.9058L1.98717 12.0319C1.61882 12.2918 1.39893 12.7159 1.39893 13.1664C1.39893 13.4668 1.50431 13.7505 1.67861 13.9862H1.20234C0.871988 13.9862 0.552785 14.125 0.326303 14.3672C0.0977944 14.6114 -0.02026 14.9438 0.0025402 15.2777C0.30249 19.7095 3.12161 21.9348 7.26263 23.9123C7.72471 24.1333 8.10624 24.5001 8.33779 24.947C8.56376 25.3837 8.52779 25.9471 8.23949 26.4265C8.02213 26.7872 8.01605 27.2214 8.22328 27.5882C8.43051 27.9551 8.80544 28.1735 9.22649 28.1735H20.7735C21.1946 28.1735 21.5695 27.9546 21.7767 27.5882C21.984 27.2214 21.9779 26.7872 21.7555 26.4173C21.4722 25.9466 21.4368 25.3837 21.6622 24.9475C21.8933 24.5006 22.2748 24.1333 22.7374 23.9123C26.8774 21.9348 29.697 19.71 29.9975 15.2782C30.0198 14.9438 29.9012 14.6119 29.6732 14.3677ZM28.3736 11.4533C28.3736 12.3754 28.0569 13.2667 27.4778 13.9867H24.8269V11.96C24.8269 11.6798 24.6004 11.4533 24.3202 11.4533C24.04 11.4533 23.8136 11.6798 23.8136 11.96V13.9867H22.0245C22.0655 13.9309 22.101 13.8722 22.1329 13.8114C22.1344 13.8088 22.1365 13.8063 22.138 13.8038C22.1826 13.7176 22.2145 13.6254 22.2403 13.5317C22.2469 13.5084 22.2525 13.4851 22.2576 13.4607C22.2783 13.3645 22.293 13.2667 22.293 13.1664C22.293 12.7154 22.0731 12.2918 21.7053 12.0334L21.5888 11.9509C21.6293 11.9483 21.6683 11.9417 21.7083 11.9387C21.7691 11.9336 21.8299 11.9275 21.8902 11.9199C21.99 11.9078 22.0888 11.8926 22.1866 11.8749C22.2444 11.8642 22.3027 11.8546 22.3599 11.8419C22.4653 11.8191 22.5692 11.7907 22.672 11.7614C22.7181 11.7482 22.7647 11.7375 22.8103 11.7229C22.9547 11.6767 23.0961 11.6256 23.2344 11.5673C23.2729 11.5511 23.3094 11.5318 23.3469 11.5146C23.4472 11.4695 23.547 11.4229 23.6438 11.3712C23.698 11.3423 23.7507 11.3109 23.8034 11.28C23.8809 11.2349 23.958 11.1893 24.0329 11.1402C24.0887 11.1037 24.1434 11.0662 24.1976 11.0277C24.266 10.9791 24.3334 10.9284 24.3993 10.8767C24.4535 10.8341 24.5072 10.7921 24.5594 10.7475C24.6217 10.6943 24.681 10.6386 24.7408 10.5828C24.7919 10.5352 24.8436 10.4881 24.8928 10.4384C24.949 10.3812 25.0012 10.3204 25.0544 10.2606C25.1552 10.1476 25.2505 10.0306 25.3412 9.90846C25.3731 9.86539 25.407 9.82385 25.4379 9.77926C25.4932 9.69971 25.5438 9.61713 25.5945 9.53505C25.6198 9.4935 25.6462 9.45246 25.6705 9.4099C25.7217 9.32123 25.7688 9.23054 25.8144 9.13883C25.8321 9.10235 25.8499 9.06637 25.8671 9.02939C25.9142 8.92856 25.9583 8.82672 25.9988 8.72234C26.0074 8.70005 26.0155 8.67674 26.0236 8.65445C26.1154 8.4077 26.1934 8.15437 26.2461 7.89191C27.5401 8.59162 28.3736 9.95305 28.3736 11.4533ZM21.2802 2.83989C23.5151 2.83989 25.3336 4.65833 25.3336 6.89326C25.3336 6.96977 25.327 7.04476 25.3224 7.12025C25.3224 7.12025 25.3209 7.12329 25.3209 7.12532C25.291 7.65783 25.1583 8.16095 24.9434 8.61746C24.9414 8.62202 24.9394 8.62658 24.9373 8.63114C24.8877 8.73602 24.833 8.83736 24.7747 8.93717C24.7676 8.94933 24.761 8.96149 24.7539 8.97365C24.6997 9.06435 24.6409 9.15251 24.5796 9.23814C24.5665 9.25688 24.5538 9.27563 24.5406 9.29387C24.4834 9.3719 24.4221 9.44689 24.3592 9.52035C24.3395 9.54366 24.3202 9.56747 24.3 9.59027C24.2407 9.65715 24.1778 9.72049 24.114 9.78331C24.0877 9.80966 24.0618 9.83601 24.0345 9.86185C23.9737 9.9186 23.9098 9.9718 23.8455 10.025C23.8125 10.0524 23.7801 10.0802 23.7462 10.1061C23.6838 10.1537 23.6195 10.1983 23.5546 10.2429C23.5156 10.2697 23.4771 10.2971 23.4366 10.3224C23.3733 10.3624 23.3079 10.3984 23.2425 10.4349C23.1979 10.4597 23.1534 10.4856 23.1078 10.5089C23.0439 10.5413 22.9781 10.5702 22.9127 10.5991C22.8625 10.6213 22.8129 10.6447 22.7617 10.6644C22.6974 10.6897 22.6315 10.7115 22.5656 10.7333C22.5104 10.7521 22.4562 10.7713 22.3999 10.7875C22.3361 10.8063 22.2702 10.8205 22.2049 10.8357C22.1446 10.8499 22.0848 10.8651 22.0235 10.8767C21.9601 10.8884 21.8958 10.896 21.832 10.9051C21.7666 10.9142 21.7017 10.9238 21.6359 10.9299C21.6232 10.9309 21.61 10.9309 21.5969 10.9319C21.5979 10.9254 21.5979 10.9188 21.5989 10.9122C21.6156 10.8205 21.6212 10.7277 21.6192 10.635C21.6187 10.6051 21.6151 10.5763 21.6126 10.5464C21.6065 10.4734 21.5943 10.402 21.5771 10.331C21.57 10.3027 21.5644 10.2743 21.5553 10.2464C21.5254 10.1512 21.4884 10.0574 21.4373 9.96926C21.2118 9.57913 20.8095 9.32224 20.3611 9.28171L20.1427 9.26195C20.0085 9.24979 19.895 9.1672 19.8392 9.05067L20.922 7.96842C21.1201 7.77031 21.1201 7.45009 20.922 7.25198C20.7239 7.05388 20.4037 7.05388 20.2055 7.25198L19.4825 7.975C19.3756 7.83972 19.25 7.71812 19.097 7.62945C18.9946 7.57017 18.8857 7.52711 18.7742 7.4962C18.7367 7.48556 18.6987 7.48455 18.6607 7.47745C18.5847 7.46276 18.5097 7.44908 18.4327 7.44756C18.4231 7.44756 18.4135 7.44351 18.4038 7.44351C18.3456 7.44351 18.2883 7.45465 18.2305 7.46225C18.1946 7.46681 18.1586 7.46681 18.1231 7.47391C18.0198 7.49519 17.9184 7.5266 17.8206 7.57169L17.623 7.6634C17.5724 7.68671 17.5187 7.69583 17.4645 7.6938C17.4614 7.6938 17.4589 7.6933 17.4558 7.6933C17.4026 7.68975 17.3494 7.67506 17.3008 7.6482C17.2517 7.39183 17.2268 7.13849 17.2268 6.89326C17.2268 4.65833 19.0448 2.83989 21.2802 2.83989ZM13.0042 9.01419L13.024 8.79581C13.0346 8.6732 13.1025 8.5673 13.2094 8.506C13.3158 8.44469 13.4415 8.4381 13.553 8.4908L13.7526 8.58352C14.3601 8.86421 15.0826 8.67016 15.4682 8.12346L15.5943 7.9441C15.7367 7.74194 16.064 7.74346 16.2054 7.94359L16.3315 8.12295C16.5899 8.48928 16.9993 8.69245 17.4244 8.70512C17.4295 8.70512 17.4341 8.70512 17.4391 8.70512C17.5004 8.70613 17.5622 8.70512 17.6236 8.69802C17.6524 8.69498 17.6808 8.6884 17.7097 8.68333C17.7512 8.67573 17.7923 8.67016 17.8333 8.65901C17.9063 8.63925 17.9782 8.61442 18.0481 8.582L18.2462 8.48978C18.3582 8.4381 18.4839 8.44368 18.5898 8.50498C18.6962 8.5668 18.7641 8.67218 18.7747 8.7953L18.7945 9.01267C18.8553 9.68046 19.3837 10.2094 20.051 10.2692L20.2689 10.289C20.392 10.2996 20.4979 10.3675 20.5592 10.4744C20.621 10.5808 20.6266 10.7065 20.5749 10.8174L20.4817 11.0181C20.4776 11.0272 20.4761 11.0353 20.4726 11.0444C20.2922 11.4579 20.3297 11.9174 20.5435 12.2893C20.5465 12.2944 20.5496 12.2999 20.5526 12.305C20.58 12.3511 20.6089 12.3952 20.6418 12.4383C20.6595 12.4621 20.6793 12.4839 20.6985 12.5067C20.7234 12.535 20.7472 12.5644 20.7745 12.5908C20.8262 12.642 20.8814 12.6901 20.9422 12.7326L21.1221 12.8598C21.2224 12.9318 21.2802 13.0432 21.2802 13.1664C21.2802 13.2895 21.2224 13.4004 21.1221 13.4714L20.9417 13.598C20.9402 13.5991 20.9392 13.6006 20.9372 13.6021C20.8713 13.6492 20.811 13.7024 20.7548 13.7602C20.7325 13.783 20.7132 13.8088 20.6925 13.8331C20.6621 13.8691 20.6322 13.9056 20.6058 13.9446C20.5957 13.9593 20.5825 13.972 20.5729 13.9872H13.9178C13.9588 13.9314 13.9943 13.8722 14.0267 13.8114C14.0282 13.8088 14.0297 13.8068 14.0313 13.8043C14.0758 13.7176 14.1083 13.6254 14.1341 13.5312C14.1407 13.5079 14.1458 13.4851 14.1508 13.4617C14.1721 13.366 14.1863 13.2682 14.1868 13.1684V13.1674C14.1868 13.1025 14.1726 13.0407 14.164 12.9774C14.1574 12.9308 14.1584 12.8826 14.1468 12.837C14.1098 12.686 14.0394 12.5477 13.9552 12.418C13.86 12.2716 13.745 12.1373 13.5986 12.0339L13.4192 11.9073C13.2718 11.8034 13.2201 11.6094 13.2956 11.4462L13.3883 11.2471C13.4334 11.1498 13.4643 11.048 13.4856 10.9446C13.4922 10.9137 13.4922 10.8828 13.4962 10.8519C13.5063 10.7789 13.5139 10.7065 13.5124 10.6335C13.5114 10.5955 13.5053 10.558 13.5013 10.52C13.4942 10.4547 13.4856 10.3898 13.4694 10.326C13.4587 10.2844 13.4445 10.2449 13.4303 10.2044C13.4182 10.1709 13.4121 10.136 13.3979 10.103C13.3893 10.0833 13.3741 10.0686 13.3645 10.0498C13.3518 10.024 13.3452 9.99612 13.331 9.97078C13.3042 9.92468 13.2677 9.88668 13.2358 9.84412C13.2094 9.80865 13.1861 9.77166 13.1567 9.73873C13.0954 9.67033 13.0255 9.61206 12.9525 9.55785C12.9308 9.54163 12.9145 9.51883 12.8917 9.50414C12.9444 9.35011 12.989 9.18088 13.0042 9.01419ZM10.1952 3.68958C10.517 3.23256 11.1508 3.12312 11.6073 3.44486C11.8272 3.5999 11.9742 3.83297 12.0203 4.10049C12.0664 4.36852 12.0071 4.63756 11.8521 4.85695L9.87553 7.66188C9.87553 7.66188 9.87503 7.66188 9.87503 7.66239L8.93313 8.99848C8.77808 9.21888 8.54552 9.36582 8.278 9.41192C8.01098 9.45651 7.74144 9.39875 7.52154 9.2432C7.52053 9.2427 7.52002 9.24168 7.51901 9.24118C7.44655 9.19 7.38575 9.12768 7.33052 9.06181C7.31634 9.04509 7.30316 9.02736 7.28999 9.00963C7.24186 8.94325 7.20031 8.87283 7.1694 8.79733C7.16738 8.79227 7.16434 8.78821 7.16231 8.78314C7.1314 8.70309 7.11418 8.61848 7.10404 8.53234C7.10151 8.51056 7.1005 8.48877 7.09898 8.46698C7.09442 8.38085 7.09695 8.29319 7.11519 8.20554C7.14306 8.07279 7.19626 7.94562 7.27631 7.83212L10.1952 3.68958ZM2.74971 13.5975L2.57035 13.4714C2.46952 13.4004 2.41176 13.2895 2.41176 13.1659C2.41176 13.0422 2.46952 12.9313 2.57035 12.8598L2.7487 12.7342C3.29742 12.3486 3.49097 11.6266 3.20926 11.0166L3.11755 10.819C3.06537 10.707 3.07145 10.5813 3.13275 10.4744C3.19457 10.368 3.29996 10.3001 3.42308 10.2895L3.64044 10.2697C4.30823 10.2099 4.83669 9.68147 4.89749 9.01368L4.91725 8.7953C4.92789 8.67269 4.99578 8.5673 5.10218 8.50549C5.20808 8.44418 5.33424 8.43861 5.44571 8.49029L5.64534 8.58301C5.79024 8.64989 5.94377 8.6889 6.09982 8.70106C6.10134 8.7117 6.1059 8.72234 6.10793 8.73299C6.10945 8.74211 6.10843 8.75122 6.10995 8.75984C6.12009 8.8176 6.14137 8.8708 6.15606 8.92704C6.17329 8.9924 6.18646 9.05877 6.20977 9.12261C6.23763 9.1976 6.27614 9.26702 6.31212 9.33795C6.33644 9.38558 6.35518 9.43472 6.38356 9.48033C6.43321 9.56089 6.49401 9.63385 6.55481 9.70681C6.58065 9.73771 6.60092 9.77166 6.62828 9.80105C6.72151 9.89985 6.82436 9.99105 6.93785 10.0706C7.03767 10.141 7.14407 10.1988 7.2525 10.2495C7.28695 10.2652 7.32191 10.2778 7.35738 10.2915C7.4349 10.3224 7.51343 10.3488 7.59399 10.3695C7.63453 10.3802 7.67455 10.3903 7.7161 10.3979C7.80173 10.4146 7.88837 10.4243 7.97602 10.4298C8.00896 10.4319 8.04088 10.4369 8.07381 10.4374C8.08243 10.4374 8.09053 10.4395 8.09914 10.4395C8.21619 10.4395 8.33373 10.4293 8.45128 10.4091C8.98582 10.3158 9.45145 10.022 9.76204 9.58115L10.5074 8.52322C10.592 8.57946 10.6573 8.67066 10.6685 8.7953L10.6882 9.01267C10.749 9.68046 11.2775 10.2089 11.9448 10.2692L12.1626 10.289C12.2103 10.293 12.2518 10.3128 12.2924 10.3325C12.3121 10.3427 12.3319 10.3518 12.3496 10.3655C12.377 10.3857 12.3993 10.4121 12.42 10.4395C12.4332 10.4567 12.4479 10.4724 12.458 10.4921C12.4824 10.5398 12.4996 10.5899 12.5021 10.6416C12.5021 10.6436 12.5016 10.6467 12.5016 10.6487C12.5036 10.7055 12.493 10.7632 12.4682 10.8169L12.3754 11.016C12.2696 11.2446 12.231 11.4888 12.2528 11.7254C12.2533 11.7284 12.2544 11.7315 12.2544 11.735C12.262 11.8105 12.2746 11.885 12.2944 11.9585C12.376 12.2635 12.5614 12.5401 12.835 12.7326L12.9581 12.8193L13.0144 12.8588C13.1157 12.9323 13.1735 13.0432 13.1735 13.1664C13.1735 13.2282 13.1593 13.2864 13.1319 13.3386C13.1243 13.3538 13.1081 13.3629 13.098 13.3771C13.0736 13.4116 13.0503 13.4465 13.0144 13.4719L13.0078 13.4764L12.8345 13.598C12.7651 13.6472 12.7012 13.7039 12.6425 13.7647C12.6242 13.7835 12.6095 13.8048 12.5928 13.824C12.5543 13.8686 12.5173 13.9142 12.4844 13.9634C12.4788 13.9715 12.4712 13.9786 12.4661 13.9867H3.11907C3.0223 13.8347 2.89715 13.7014 2.74971 13.5975ZM22.3006 22.9978C21.6404 23.313 21.0942 23.8399 20.7619 24.4818C20.3753 25.2287 20.4234 26.1706 20.8921 26.9488C20.9265 27.0066 20.9124 27.0573 20.8936 27.0892C20.8754 27.1211 20.8399 27.1601 20.7725 27.1601H9.22649C9.15961 27.1601 9.12363 27.1216 9.10539 27.0892C9.08715 27.0573 9.07246 27.0066 9.11249 26.9397C9.57609 26.1701 9.62423 25.2282 9.23764 24.4808C8.90577 23.8389 8.35907 23.3119 7.69938 22.9973C3.77015 21.1216 1.28138 19.1643 1.01386 15.2098C1.00879 15.1343 1.04527 15.0831 1.06706 15.0593C1.09239 15.0319 1.13647 15 1.20284 15H2.79683H12.7894H20.8961H20.9281H27.7119H28.7977C28.8635 15 28.9076 15.0319 28.9335 15.0593C28.9552 15.0831 28.9917 15.1338 28.9862 15.2098C28.7181 19.1643 26.2294 21.1216 22.3006 22.9978Z" fill="white"/>
<path d="M18.7469 23.6134H14.3353C14.0556 23.6134 13.8286 23.8399 13.8286 24.1201C13.8286 24.4003 14.0556 24.6268 14.3353 24.6268H18.7469C19.0266 24.6268 19.2535 24.4003 19.2535 24.1201C19.2535 23.8399 19.0266 23.6134 18.7469 23.6134Z" fill="white"/>
<path d="M11.1468 24.6268H12.8624C13.1421 24.6268 13.3691 24.4003 13.3691 24.1201C13.3691 23.8399 13.1421 23.6134 12.8624 23.6134H11.1468C10.8671 23.6134 10.6401 23.8399 10.6401 24.1201C10.6401 24.4003 10.8666 24.6268 11.1468 24.6268Z" fill="white"/>
<path d="M18.7469 25.1334H11.1468C10.8671 25.1334 10.6401 25.3599 10.6401 25.6401C10.6401 25.9203 10.8671 26.1468 11.1468 26.1468H18.7469C19.0266 26.1468 19.2535 25.9203 19.2535 25.6401C19.2535 25.3599 19.0266 25.1334 18.7469 25.1334Z" fill="white"/>
<path d="M20.2055 6.53504C20.3043 6.63384 20.434 6.6835 20.5637 6.6835C20.6934 6.6835 20.8231 6.63384 20.9219 6.53504C21.12 6.33694 21.12 6.01672 20.9219 5.81861L19.4886 4.38574C19.2904 4.18764 18.9702 4.18764 18.7721 4.38574C18.574 4.58385 18.574 4.90407 18.7721 5.10218L20.2055 6.53504Z" fill="white"/>
<path d="M23.0712 9.40078C23.17 9.49958 23.2997 9.54923 23.4294 9.54923C23.5591 9.54923 23.6888 9.49958 23.7876 9.40078C23.9858 9.20267 23.9852 8.88245 23.7876 8.68434L22.3543 7.25148C22.1562 7.05337 21.8359 7.05337 21.6378 7.25148C21.4397 7.44959 21.4397 7.7698 21.6378 7.96791L23.0712 9.40078Z" fill="white"/>
<path d="M21.9965 6.6835C22.1263 6.6835 22.256 6.63384 22.3548 6.53504L23.7881 5.10218C23.9857 4.90407 23.9862 4.58385 23.7881 4.38574C23.59 4.18764 23.2698 4.18764 23.0717 4.38574L21.6383 5.81861C21.4402 6.01672 21.4402 6.33694 21.6383 6.53504C21.7371 6.63384 21.8668 6.6835 21.9965 6.6835Z" fill="white"/>
<path d="M24.8269 10.9466C24.8269 11.2268 25.0534 11.4533 25.3336 11.4533H27.3603C27.6404 11.4533 27.8669 11.2268 27.8669 10.9466C27.8669 10.6664 27.6404 10.44 27.3603 10.44H25.3336C25.0534 10.44 24.8269 10.6664 24.8269 10.9466Z" fill="white"/>
<path d="M15.4536 11.2C15.5833 11.2 15.713 11.1503 15.8118 11.0515L16.5718 10.2915C16.7699 10.0934 16.7699 9.77318 16.5718 9.57507C16.3737 9.37696 16.0535 9.37696 15.8554 9.57507L15.0954 10.3351C14.8973 10.5332 14.8973 10.8534 15.0954 11.0515C15.1942 11.1503 15.3239 11.2 15.4536 11.2Z" fill="white"/>
<path d="M17.8821 12.3182C17.9809 12.417 18.1106 12.4666 18.2403 12.4666C18.37 12.4666 18.4997 12.417 18.5985 12.3182C18.7966 12.1201 18.7966 11.7999 18.5985 11.6018L18.0918 11.0951C17.8937 10.897 17.5735 10.897 17.3754 11.0951C17.1773 11.2932 17.1773 11.6134 17.3754 11.8115L17.8821 12.3182Z" fill="white"/>
<path d="M15.8552 12.1084L15.3485 12.6151C15.1504 12.8132 15.1504 13.1334 15.3485 13.3315C15.4473 13.4303 15.577 13.48 15.7067 13.48C15.8365 13.48 15.9662 13.4303 16.065 13.3315L16.5716 12.8249C16.7697 12.6268 16.7697 12.3065 16.5716 12.1084C16.3735 11.9103 16.0528 11.9103 15.8552 12.1084Z" fill="white"/>
</g>
<defs>
<clipPath id="clip0_90_1837">
<rect width="30" height="30" fill="white"/>
</clipPath>
</defs>
</svg>
