<svg width="30" height="30" viewBox="0 0 30 30" fill="none" xmlns="http://www.w3.org/2000/svg">
<path d="M6.60227 2.3918C6.47424 2.39179 6.34956 2.43273 6.24646 2.50863C6.14336 2.58453 6.06724 2.69142 6.02922 2.81368L5.64602 3.99024C5.19263 5.37866 5.34597 6.97635 6.09719 8.12813C6.59277 8.88795 6.74864 10.2087 6.41242 11.2383L6.02922 12.4137C6.00475 12.4886 5.99528 12.5677 6.00136 12.6463C6.00743 12.7249 6.02893 12.8015 6.06462 12.8718C6.10031 12.9421 6.1495 13.0047 6.20938 13.056C6.26926 13.1072 6.33865 13.1462 6.4136 13.1707C6.48854 13.1952 6.56757 13.2046 6.64618 13.1986C6.72478 13.1925 6.80142 13.171 6.87172 13.1353C6.94202 13.0996 7.00459 13.0504 7.05588 12.9905C7.10717 12.9307 7.14616 12.8613 7.17063 12.7863L7.55383 11.6098C8.00722 10.2214 7.85388 8.62366 7.10266 7.47188C6.60708 6.71206 6.45121 5.3913 6.78742 4.36172L7.17063 3.18633C7.2016 3.09593 7.21053 2.99944 7.19668 2.90489C7.18283 2.81034 7.1466 2.72046 7.091 2.64274C7.0354 2.56502 6.96205 2.5017 6.87704 2.45805C6.79203 2.41441 6.69783 2.39169 6.60227 2.3918ZM10.8023 2.3918C10.6742 2.39179 10.5496 2.43273 10.4465 2.50863C10.3434 2.58453 10.2672 2.69142 10.2292 2.81368L9.84602 3.99024C9.39263 5.37866 9.54597 6.97635 10.2972 8.12813C10.7928 8.88795 10.9486 10.2087 10.6124 11.2383L10.2292 12.4137C10.2048 12.4886 10.1953 12.5677 10.2014 12.6463C10.2074 12.7249 10.2289 12.8015 10.2646 12.8718C10.3003 12.9421 10.3495 13.0047 10.4094 13.056C10.4693 13.1072 10.5387 13.1462 10.6136 13.1707C10.6885 13.1952 10.7676 13.2046 10.8462 13.1986C10.9248 13.1925 11.0014 13.171 11.0717 13.1353C11.142 13.0996 11.2046 13.0504 11.2559 12.9905C11.3072 12.9307 11.3462 12.8613 11.3706 12.7863L11.7538 11.6098C12.2072 10.2214 12.0539 8.62366 11.3027 7.47188C10.8071 6.71206 10.6512 5.3913 10.9874 4.36172L11.3706 3.18633C11.4016 3.09593 11.4105 2.99944 11.3967 2.90489C11.3828 2.81034 11.3466 2.72046 11.291 2.64274C11.2354 2.56502 11.162 2.5017 11.077 2.45805C10.992 2.41441 10.8978 2.39169 10.8023 2.3918ZM15.0023 2.3918C14.8742 2.39179 14.7496 2.43273 14.6465 2.50863C14.5434 2.58453 14.4672 2.69142 14.4292 2.81368L14.046 3.99024C13.5926 5.37866 13.746 6.97635 14.4972 8.12813C14.9928 8.88795 15.1486 10.2087 14.8124 11.2383L14.4292 12.4137C14.4048 12.4886 14.3953 12.5677 14.4014 12.6463C14.4074 12.7249 14.4289 12.8015 14.4646 12.8718C14.5003 12.9421 14.5495 13.0047 14.6094 13.056C14.6693 13.1072 14.7387 13.1462 14.8136 13.1707C14.8885 13.1952 14.9676 13.2046 15.0462 13.1986C15.1248 13.1925 15.2014 13.171 15.2717 13.1353C15.342 13.0996 15.4046 13.0504 15.4559 12.9905C15.5072 12.9307 15.5462 12.8613 15.5706 12.7863L15.9538 11.6098C16.4072 10.2214 16.2539 8.62366 15.5027 7.47188C15.0071 6.71206 14.8512 5.3913 15.1874 4.36172L15.5706 3.18633C15.6016 3.09593 15.6105 2.99944 15.5967 2.90489C15.5828 2.81034 15.5466 2.72046 15.491 2.64274C15.4354 2.56502 15.362 2.5017 15.277 2.45805C15.192 2.41441 15.0978 2.39169 15.0023 2.3918ZM26.1632 6.00352C26.0278 6.00318 25.8926 6.01636 25.7601 6.04219C25.23 6.14552 24.7398 6.45454 24.4265 6.94219L24.4757 6.87657L17.0144 15.6H2.39992C2.2408 15.6 2.0882 15.6632 1.97568 15.7758C1.86316 15.8883 1.79994 16.0409 1.79992 16.2V18C1.79992 18.1209 1.84141 18.2308 1.8468 18.3504C1.79965 18.4533 1.78255 18.5674 1.79748 18.6796C1.81241 18.7917 1.85876 18.8974 1.93117 18.9844C2.24583 21.4839 3.63596 23.6793 5.47024 25.2773C7.54603 27.0858 10.1078 28.2 12.2999 28.2H17.6999C19.892 28.2 22.4538 27.0858 24.5296 25.2773C26.6054 23.4689 28.1999 20.92 28.1999 18V16.2C28.1999 16.0409 28.1367 15.8883 28.0242 15.7758C27.9117 15.6632 27.7591 15.6 27.5999 15.6H21.5624L27.723 9.3586C27.7396 9.34195 27.7553 9.32434 27.7698 9.30586C28.481 8.3899 28.2811 7.04526 27.3339 6.37617C26.9788 6.12534 26.5694 6.00454 26.1632 6.00352ZM26.1527 7.19649C26.3201 7.19778 26.4906 7.24938 26.6413 7.35586C27.0401 7.63753 27.1181 8.17275 26.8241 8.56055L19.8761 15.6H18.5941L25.3874 7.65703C25.4049 7.63627 25.421 7.61435 25.4355 7.59141C25.5686 7.38426 25.7696 7.25419 25.9874 7.21172C26.0419 7.20111 26.0968 7.19606 26.1527 7.19649ZM2.99992 16.8H17.2054C17.261 16.8078 17.3174 16.8078 17.373 16.8H20.0425C20.0954 16.8071 20.149 16.8071 20.2019 16.8H26.9999V18C26.9999 20.48 25.6251 22.7311 23.7409 24.3727C21.8567 26.0142 19.4678 27 17.6999 27H12.2999C10.532 27 8.14311 26.0142 6.25891 24.3727C4.68691 23.0031 3.52196 21.1971 3.16164 19.2H24.5999C24.6794 19.2011 24.7584 19.1864 24.8322 19.1568C24.9059 19.1271 24.9731 19.0831 25.0297 19.0273C25.0863 18.9715 25.1313 18.9049 25.162 18.8316C25.1927 18.7582 25.2085 18.6795 25.2085 18.6C25.2085 18.5205 25.1927 18.4418 25.162 18.3684C25.1313 18.2951 25.0863 18.2285 25.0297 18.1727C24.9731 18.1169 24.9059 18.0729 24.8322 18.0432C24.7584 18.0136 24.6794 17.9989 24.5999 18H2.99992V16.8Z" fill="white"/>
</svg>
